<?xml version="1.0" standalone="no"?>
<!DOCTYPE svg PUBLIC "-//W3C//DTD SVG 20010904//EN"
 "http://www.w3.org/TR/2001/REC-SVG-20010904/DTD/svg10.dtd">
<svg version="1.0" xmlns="http://www.w3.org/2000/svg"
 width="500.000000pt" height="500.000000pt" viewBox="0 0 500.000000 500.000000"
 preserveAspectRatio="xMidYMid meet">

<g transform="translate(0.000000,500.000000) scale(0.100000,-0.100000)"
fill="#000000" stroke="none">
<path d="M1461 3092 c-145 -411 -267 -753 -269 -761 -3 -8 0 -12 8 -9 14 4 22
24 105 256 l57 162 326 -2 326 -3 74 -207 75 -208 143 0 143 0 -28 78 c-26 71
-521 1384 -536 1425 -6 14 -20 17 -84 17 l-76 0 -264 -748z m239 542 c0 -23
95 -304 204 -602 53 -145 96 -265 96 -267 0 -3 -142 -5 -315 -5 -173 0 -315 2
-315 3 0 2 60 174 134 383 73 208 143 409 155 447 20 60 41 81 41 41z"/>
<path d="M2350 3080 c0 -5 12 -10 26 -10 51 0 106 -24 133 -57 17 -21 67 -149
141 -360 l116 -328 137 -3 c102 -2 137 1 137 10 0 6 -44 138 -97 292 -80 229
-97 292 -98 340 0 79 23 97 129 104 42 2 76 9 76 13 0 5 -157 9 -350 9 -227 0
-350 -4 -350 -10z"/>
<path d="M3420 3081 c0 -5 51 -11 113 -13 116 -5 168 -20 181 -53 16 -42 -1
-115 -89 -391 -52 -163 -93 -299 -90 -302 12 -13 28 29 124 324 56 171 111
326 124 344 37 56 68 72 146 78 39 2 71 9 71 13 0 5 -130 9 -290 9 -159 0
-290 -4 -290 -9z"/>
<path d="M3006 1643 c37 -104 73 -210 82 -236 l16 -48 70 3 70 3 74 228 c65
199 79 257 56 234 -3 -3 -23 -60 -43 -128 -21 -67 -40 -118 -43 -113 -3 5 -20
62 -38 127 l-34 117 -138 0 -137 0 65 -187z"/>
<path d="M1508 1753 c6 -2 18 -2 25 0 6 3 1 5 -13 5 -14 0 -19 -2 -12 -5z"/>
<path d="M1778 1753 c7 -3 16 -2 19 1 4 3 -2 6 -13 5 -11 0 -14 -3 -6 -6z"/>
<path d="M2272 1725 c0 -22 2 -32 5 -22 2 9 11 17 18 17 7 0 16 -8 18 -17 3
-10 5 -2 5 17 0 19 -2 29 -5 23 -7 -19 -31 -16 -36 5 -3 9 -5 -1 -5 -23z"/>
<path d="M2430 1756 c0 -2 9 -6 20 -9 11 -3 18 -1 14 4 -5 9 -34 13 -34 5z"/>
<path d="M2580 1753 c8 -3 19 -11 23 -17 6 -7 7 -6 4 4 -2 8 -12 16 -23 17
-13 2 -15 1 -4 -4z"/>
<path d="M1660 1741 c0 -5 -8 -12 -17 -14 -16 -4 -16 -5 -1 -6 9 0 19 -9 21
-18 3 -10 5 -3 6 15 0 17 -1 32 -4 32 -3 0 -5 -4 -5 -9z"/>
<path d="M1900 1736 c0 -3 9 -10 20 -16 11 -6 20 -8 20 -6 0 3 -9 10 -20 16
-11 6 -20 8 -20 6z"/>
<path d="M2140 1736 c0 -3 9 -10 20 -16 11 -6 20 -8 20 -6 0 3 -9 10 -20 16
-11 6 -20 8 -20 6z"/>
<path d="M1778 1723 c7 -3 16 -2 19 1 4 3 -2 6 -13 5 -11 0 -14 -3 -6 -6z"/>
<path d="M1088 1698 c6 -6 18 -8 28 -6 14 3 12 5 -9 10 -19 3 -25 2 -19 -4z"/>
<path d="M1357 1698 c2 -5 13 -8 23 -8 10 0 21 3 23 8 3 4 -8 7 -23 7 -15 0
-26 -3 -23 -7z"/>
<path d="M2445 1700 c-16 -7 -17 -9 -3 -9 9 -1 20 4 23 9 7 11 7 11 -20 0z"/>
<path d="M1238 1693 c7 -3 16 -2 19 1 4 3 -2 6 -13 5 -11 0 -14 -3 -6 -6z"/>
<path d="M1778 1693 c7 -3 16 -2 19 1 4 3 -2 6 -13 5 -11 0 -14 -3 -6 -6z"/>
</g>
</svg>
